<?xml version="1.0" encoding="utf-8"?><svg viewBox="0 0 40 30" xmlns="http://www.w3.org/2000/svg" xmlns:xlink="http://www.w3.org/1999/xlink"><style>:root>svg{display:none}:root>svg:target{display:block}</style><svg viewBox="0 0 10 10" id="arrow_2" xmlns="http://www.w3.org/2000/svg"><path d="M9.84 5.388L6.23 9a.543.543 0 01-.387.16.544.544 0 01-.387-.16l-.328-.328a.554.554 0 010-.779l2.107-2.111H.54A.534.534 0 010 5.243V4.78c0-.302.238-.562.54-.562h6.718L5.127 2.095a.54.54 0 010-.769L5.455 1a.543.543 0 01.387-.16c.146 0 .284.058.387.16L9.84 4.612c.104.104.16.242.16.388a.544.544 0 01-.16.39z"/></svg><svg viewBox="0 0 10 6" id="arrow_3" xmlns="http://www.w3.org/2000/svg"><path d="M5 5.85a.698.698 0 01-.495-.205l-4.3-4.3a.7.7 0 11.99-.99L5 4.158 8.804.355a.7.7 0 01.99.99l-4.299 4.3A.698.698 0 015 5.85z"/></svg><svg viewBox="0 0 16 8" id="arrow_4" xmlns="http://www.w3.org/2000/svg"><path d="M8 8L0 0h16L8 8z"/></svg><svg viewBox="0 0 40 15" id="arrow_right" xmlns="http://www.w3.org/2000/svg"><path d="M40 9l-6 6V3l6 6zM34.444 9H0"/></svg><svg viewBox="0 0 18 18" id="burger" xmlns="http://www.w3.org/2000/svg"><rect width="18" height="2" rx="1"/><rect y="8" width="18" height="2" rx="1"/><rect y="16" width="18" height="2" rx="1"/></svg><svg viewBox="0 0 14 14" id="calendar" xmlns="http://www.w3.org/2000/svg"><g clip-path="url(#fclip0_1_4202)"><path d="M5.1 7.724a.318.318 0 00-.317-.318H3.674a.318.318 0 00-.318.318v1.108c0 .176.143.318.318.318h1.109a.318.318 0 00.318-.318V7.724zM7.872 7.724a.318.318 0 00-.317-.318h-1.11a.318.318 0 00-.317.318v1.108c0 .176.142.318.318.318h1.109a.318.318 0 00.317-.318V7.724zM10.644 7.724a.318.318 0 00-.318-.318H9.217a.318.318 0 00-.318.318v1.108c0 .176.143.318.318.318h1.11a.318.318 0 00.317-.318V7.724zM5.1 10.495a.318.318 0 00-.317-.317H3.674a.318.318 0 00-.318.317v1.109c0 .175.143.318.318.318h1.109a.318.318 0 00.318-.318v-1.109zM7.872 10.495a.318.318 0 00-.317-.317h-1.11a.318.318 0 00-.317.317v1.109c0 .175.142.318.318.318h1.109a.318.318 0 00.317-.318v-1.109zM10.644 10.495a.318.318 0 00-.318-.317H9.217a.318.318 0 00-.318.317v1.109c0 .175.143.318.318.318h1.11a.318.318 0 00.317-.318v-1.109z"/><path d="M12.626 1.559v1.693c0 .766-.62 1.383-1.386 1.383h-.874A1.39 1.39 0 018.97 3.252v-1.7H5.029v1.7a1.39 1.39 0 01-1.394 1.383H2.76a1.383 1.383 0 01-1.386-1.383V1.56A1.26 1.26 0 00.155 2.813v9.925C.155 13.43.717 14 1.41 14h11.18c.692 0 1.255-.57 1.255-1.262V2.813c0-.68-.55-1.234-1.219-1.254zm-.406 10.56c0 .3-.243.543-.542.543h-9.38a.543.543 0 01-.542-.542V6.993c0-.3.243-.543.543-.543h9.379c.3 0 .542.243.542.543v5.127z"/><path d="M2.758 3.727h.865a.475.475 0 00.475-.475V.475A.475.475 0 003.623 0h-.865a.475.475 0 00-.476.475v2.777c0 .262.213.475.476.475zM10.354 3.727h.865a.475.475 0 00.476-.475V.475A.475.475 0 0011.219 0h-.865a.475.475 0 00-.475.475v2.777c0 .262.213.475.475.475z"/></g><defs><clipPath id="fclip0_1_4202"><path d="M0 0h14v14H0z"/></clipPath></defs></svg><svg fill="none" viewBox="0 0 18 18" id="close" xmlns="http://www.w3.org/2000/svg"><rect width="18" height="2" rx="1" fill="#fff"/><rect y="8" width="18" height="2" rx="1" fill="#fff"/><rect y="16" width="18" height="2" rx="1" fill="#fff"/></svg><svg fill="none" viewBox="0 0 14 18" id="colocl" xmlns="http://www.w3.org/2000/svg"><path d="M13.975 13.145c-.084.41-.312.776-.645 1.037-.333.261-.783.827-1.209.818H1.811c-.427.01-.808-.557-1.141-.818a1.773 1.773 0 01-.645-1.037c-.063-.36-.006-.73.161-1.057.168-.327.437-.592.77-.758.535-.297.882-.838.923-1.44l.311-3.054A4.69 4.69 0 013.445 4.1C4.155 3.346 4.97 2.837 6 2.652V1c0-.306.292-.732.563-.885a.89.89 0 01.875 0C7.708.268 8 .694 8 1v1.652c1.05.215 1.876.771 2.589 1.557a4.846 4.846 0 011.24 2.822l.292 2.859c.041.602.388 1.143.923 1.44.332.166.602.432.77.758.167.327.224.697.161 1.057zM7 18c.464 0 .91-.18 1.238-.502C8.566 17.176 9 16.455 9 16H5c0 .455.435 1.176.763 1.498A1.77 1.77 0 007 18z" fill="#fff"/></svg><svg viewBox="0 0 14 14" id="eye" xmlns="http://www.w3.org/2000/svg"><g clip-path="url(#iclip0_1_4196)"><path d="M7 5.09A1.91 1.91 0 018.91 7 1.91 1.91 0 017 8.909a1.91 1.91 0 01-1.909-1.91 1.91 1.91 0 011.91-1.908z"/><path d="M7 2.228c3.182 0 5.9 1.979 7 4.772a7.526 7.526 0 01-7 4.773c-3.185 0-5.9-1.98-7-4.773a7.523 7.523 0 017-4.772zm0 7.954a3.183 3.183 0 000-6.364 3.183 3.183 0 000 6.364z"/></g><defs><clipPath id="iclip0_1_4196"><path transform="matrix(-1 0 0 1 14 0)" d="M0 0h14v14H0z"/></clipPath></defs></svg><svg viewBox="0 0 10 16" id="faceboock" xmlns="http://www.w3.org/2000/svg"><path d="M9 .003L6.924 0C4.594 0 3.087 1.546 3.087 3.938v1.815H1.001a.326.326 0 00-.326.327v2.63c0 .18.146.326.326.326h2.086v6.638c0 .18.146.326.326.326h2.722c.18 0 .327-.146.327-.326V9.036H8.9c.18 0 .326-.146.326-.326V6.08a.327.327 0 00-.325-.327h-2.44V4.214c0-.74.176-1.115 1.14-1.115h1.397c.18 0 .326-.147.326-.327V.33A.326.326 0 009 .003z"/></svg><svg fill="none" viewBox="0 0 13 13" id="home" xmlns="http://www.w3.org/2000/svg"><g clip-path="url(#kclip0_0_6497)" fill="#E36F59"><path d="M12.782 5.812L6.949.497a.664.664 0 00-.898 0L.218 5.812a.662.662 0 00-.172.733c.1.26.344.426.621.426H1.6v5.325c0 .211.171.383.382.383h3.197a.382.382 0 00.383-.383V9.063H7.44v3.233c0 .211.17.383.382.383h3.197a.382.382 0 00.382-.383V6.971h.932a.662.662 0 00.621-.426.663.663 0 00-.172-.733zM11.301 1.085H8.734l2.95 2.682v-2.3a.382.382 0 00-.383-.382z"/></g><defs><clipPath id="kclip0_0_6497"><path fill="#fff" d="M0 0h13v13H0z"/></clipPath></defs></svg><svg viewBox="0 0 16 16" id="inst" xmlns="http://www.w3.org/2000/svg"><path d="M15.994 16h-3.31v-.19c0-1.798.003-3.596-.006-5.393a6.084 6.084 0 00-.113-1.116c-.203-1.026-.874-1.413-1.868-1.313-.944.097-1.472.61-1.628 1.585-.063.394-.091.797-.094 1.197-.01 1.679-.003 3.354-.003 5.033v.194H5.666V5.327h3.171v1.479c.05-.056.072-.075.088-.097.56-.928 1.403-1.441 2.45-1.604.866-.134 1.725-.062 2.547.275.944.385 1.481 1.126 1.768 2.076.216.71.297 1.438.304 2.173.012 2.095.006 4.189.009 6.284l-.01.087zM.272 15.997V5.327h3.297v10.67H.272zM1.922 3.864C.869 3.864 0 2.986 0 1.923 0 .863.869-.003 1.931 0a1.928 1.928 0 011.913 1.926c0 1.06-.872 1.938-1.922 1.938z"/></svg><svg fill="none" viewBox="0 0 16 16" id="mail" xmlns="http://www.w3.org/2000/svg"><path d="M10.605 8.09L16 11.81V4.212L10.605 8.09zM0 4.212v7.598l5.394-3.72L0 4.211zM15 2H1c-.5 0-.896.406-.97.928L8 8.657l7.97-5.729C15.893 2.406 15.497 2 15 2zM9.69 8.748L8.273 9.765a.47.47 0 01-.55 0L6.31 8.747.031 13.08c.077.518.471.92.968.92h14c.497 0 .891-.402.968-.92L9.69 8.75z" fill="#C4CACF"/></svg><svg fill="none" viewBox="0 0 20 30" id="mouse" xmlns="http://www.w3.org/2000/svg"><path d="M20 9.882c0-3.53-1.906-6.793-5-8.558a10.102 10.102 0 00-10 0C1.906 3.09 0 6.352 0 9.882v10.236c0 3.53 1.906 6.793 5 8.558a10.102 10.102 0 0010 0c3.094-1.765 5-5.028 5-8.558V9.882zm-1.428 10.236a8.452 8.452 0 01-4.286 7.335 8.66 8.66 0 01-8.572 0 8.452 8.452 0 01-4.285-7.335V9.882a8.452 8.452 0 014.285-7.335 8.66 8.66 0 018.572 0 8.452 8.452 0 014.285 7.335v10.236z" fill="#23262D"/><path d="M10 7c-.553 0-1 .35-1 .781v4.438c0 .431.448.781 1 .781.553 0 1-.35 1-.781V7.78a.706.706 0 00-.293-.552A1.156 1.156 0 0010 7z" fill="#E36F59"/></svg><svg viewBox="0 0 16 14" id="twitter" xmlns="http://www.w3.org/2000/svg"><path d="M14.356 3.742A6.547 6.547 0 0016 2.039a6.85 6.85 0 01-1.89.518A3.263 3.263 0 0015.553.744a6.563 6.563 0 01-2.08.794A3.28 3.28 0 007.8 3.781c0 .26.022.51.076.748a9.287 9.287 0 01-6.761-3.432 3.308 3.308 0 00-.45 1.658c0 1.136.585 2.143 1.458 2.726A3.242 3.242 0 01.64 5.077v.036a3.296 3.296 0 002.628 3.224 3.261 3.261 0 01-.86.108c-.21 0-.422-.012-.62-.056a3.312 3.312 0 003.064 2.285 6.593 6.593 0 01-4.067 1.399c-.269 0-.527-.012-.785-.045A9.237 9.237 0 005.032 13.5c5.789 0 9.561-4.83 9.324-9.758z"/></svg><svg viewBox="0 0 16 16" id="user" xmlns="http://www.w3.org/2000/svg"><g clip-path="url(#pclip0_0_141)"><path d="M7.886 7.707c1.059 0 1.976-.38 2.725-1.129a3.728 3.728 0 001.129-2.725 3.73 3.73 0 00-1.13-2.724A3.73 3.73 0 007.887 0C6.827 0 5.91.38 5.161 1.129a3.729 3.729 0 00-1.129 2.724c0 1.06.38 1.976 1.13 2.725a3.73 3.73 0 002.724 1.13zM14.629 12.303a9.522 9.522 0 00-.13-1.01 7.975 7.975 0 00-.248-1.017 5.023 5.023 0 00-.418-.948 3.576 3.576 0 00-.63-.822 2.778 2.778 0 00-.905-.568c-.351-.14-.74-.21-1.156-.21-.163 0-.321.068-.626.266a83.46 83.46 0 01-.653.42c-.21.134-.493.26-.844.373-.342.11-.69.167-1.032.167-.343 0-.69-.056-1.033-.167a3.73 3.73 0 01-.844-.372 89.76 89.76 0 01-.653-.42c-.305-.2-.463-.266-.626-.266-.416 0-.805.07-1.155.209-.352.14-.657.33-.906.569-.237.227-.45.503-.63.82a5.031 5.031 0 00-.417.949c-.1.312-.184.654-.249 1.016a9.487 9.487 0 00-.13 1.011c-.02.307-.032.624-.032.945 0 .836.266 1.512.79 2.01.517.492 1.2.742 2.033.742h7.704c.832 0 1.516-.25 2.033-.742.524-.498.79-1.174.79-2.01 0-.322-.012-.64-.033-.945z"/></g><defs><clipPath id="pclip0_0_141"><path d="M0 0h16v16H0z"/></clipPath></defs></svg></svg>